<svg aria-hidden="true" style="position: absolute; overflow: hidden;" version="1.1" xmlns="http://www.w3.org/2000/svg" xmlns:xlink="http://www.w3.org/1999/xlink">
<defs>

<symbol id="icon-compare" viewBox="0 0 32 32">
<path d="M15.52 3.91c-0.155 0.034-0.291 0.079-0.42 0.136l0.014-0.006c-0.233 0.163-0.411 0.39-0.509 0.656l-0.003 0.010c-0.104 0.344-0.1 22.254 0.004 22.6 0.131 0.351 0.403 0.622 0.745 0.749l0.009 0.003c0.308 0.086 0.972 0.086 1.28 0 0.351-0.13 0.623-0.401 0.751-0.743l0.003-0.009c0.108-0.356 0.108-22.256 0-22.612-0.092-0.306-0.442-0.662-0.728-0.74-0.201-0.055-0.433-0.087-0.672-0.087-0.168 0-0.332 0.016-0.491 0.046l0.016-0.003zM23.52 11.91c-0.155 0.034-0.291 0.079-0.42 0.136l0.014-0.006c-0.233 0.163-0.411 0.39-0.509 0.656l-0.003 0.010c-0.104 0.342-0.1 14.254 0.004 14.6 0.131 0.351 0.403 0.622 0.745 0.749l0.009 0.003c0.192 0.043 0.413 0.068 0.64 0.068s0.448-0.025 0.66-0.072l-0.020 0.004c0.351-0.13 0.623-0.401 0.751-0.743l0.003-0.009c0.108-0.354 0.108-14.258 0-14.612-0.092-0.306-0.442-0.662-0.728-0.74-0.201-0.055-0.433-0.087-0.672-0.087-0.168 0-0.332 0.016-0.491 0.046l0.016-0.003zM7.568 17.224c-0.295 0.040-0.55 0.187-0.731 0.398l-0.001 0.002c-0.308 0.352-0.302 0.252-0.302 5.042 0 4.914-0.014 4.72 0.366 5.102 0.268 0.266 0.546 0.358 1.1 0.358 0.22 0 0.508-0.032 0.64-0.068 0.351-0.13 0.623-0.401 0.751-0.743l0.003-0.009c0.106-0.352 0.106-8.926 0-9.278-0.092-0.306-0.442-0.662-0.728-0.742-0.215-0.055-0.462-0.086-0.716-0.086-0.135 0-0.267 0.009-0.397 0.026l0.015-0.002z"></path>
</symbol>

<symbol id="icon-employees" viewBox="0 0 32 32">
<path d="M11.254 2.566c-2.656 0.292-4.836 2.060-5.724 4.638-0.43 1.248-0.43 3.012 0 4.258 0.376 1.094 0.858 1.868 1.666 2.676 1.336 1.336 2.904 1.984 4.804 1.984 1.894 0 3.472-0.652 4.804-1.984s1.984-2.91 1.984-4.804c0-1.9-0.648-3.468-1.984-4.804-0.723-0.747-1.621-1.32-2.628-1.653l-0.046-0.013c-0.778-0.27-1.998-0.396-2.876-0.298zM13.218 5.682c1.145 0.418 2.030 1.308 2.431 2.428l0.009 0.028c0.14 0.43 0.156 0.544 0.156 1.196s-0.016 0.764-0.156 1.196c-0.413 1.157-1.31 2.052-2.44 2.453l-0.028 0.009c-0.424 0.14-0.54 0.154-1.19 0.154s-0.766-0.014-1.19-0.154c-1.158-0.411-2.055-1.305-2.459-2.434l-0.009-0.028c-0.14-0.432-0.156-0.544-0.156-1.196 0-0.65 0.016-0.766 0.154-1.19 0.449-1.282 1.501-2.249 2.807-2.57l0.027-0.006c0.215-0.039 0.462-0.061 0.714-0.061 0.086 0 0.172 0.003 0.257 0.008l-0.012-0.001c0.524 0.016 0.718 0.046 1.084 0.168zM5.946 18.564c-1.612 0.164-3.030 0.884-4.083 1.963l-0.001 0.001c-0.788 0.79-1.3 1.612-1.692 2.718l-0.142 0.408-0.016 2.598-0.016 2.596 0.192 0.214c0.262 0.29 0.584 0.404 1.118 0.4 0.236-0.002 0.534-0.034 0.666-0.072 0.342-0.128 0.61-0.388 0.747-0.715l0.003-0.009c0.046-0.146 0.078-0.828 0.102-2.16l0.034-1.946 0.154-0.446c0.42-1.143 1.31-2.027 2.43-2.429l0.028-0.009 0.476-0.156h12.108l0.468 0.154c1.149 0.409 2.042 1.291 2.455 2.406l0.009 0.028 0.156 0.452 0.034 1.946c0.024 1.332 0.056 2.014 0.102 2.16 0.092 0.294 0.452 0.64 0.75 0.724 0.306 0.088 0.97 0.088 1.278 0 0.352-0.128 0.625-0.399 0.753-0.741l0.003-0.009c0.116-0.39 0.098-3.868-0.024-4.528-0.265-1.416-0.941-2.642-1.899-3.583l-0.001-0.001c-0.726-0.742-1.623-1.313-2.627-1.652l-0.047-0.014c-0.96-0.33-0.744-0.32-7.198-0.332-3.24-0.006-6.084 0.008-6.32 0.034zM25.932 18.802c-0.166 0.084-0.304 0.197-0.414 0.335l-0.002 0.003c-0.204 0.343-0.33 0.755-0.342 1.195l-0 0.003c0.002 0.666 0.296 0.998 1.118 1.268 0.838 0.276 1.194 0.488 1.74 1.032 0.39 0.39 0.528 0.572 0.708 0.936 0.388 0.786 0.392 0.814 0.43 2.986 0.030 1.812 0.040 1.964 0.142 2.186 0.145 0.306 0.403 0.538 0.719 0.645l0.009 0.003c0.124 0.036 0.418 0.066 0.654 0.068 0.532 0.004 0.856-0.112 1.116-0.398l0.19-0.21v-5.054l-0.168-0.522c-0.358-1.093-0.95-2.026-1.721-2.777l-0.001-0.001c-0.998-1.006-2.414-1.74-3.496-1.814-0.36-0.026-0.43-0.014-0.682 0.116z"></path>
</symbol>

<symbol id="icon-managers" viewBox="0 0 32 32">
<path fill="none" stroke="#fff" style="stroke: var(--color1, #fff)" stroke-linejoin="round" stroke-linecap="round" stroke-miterlimit="4" stroke-width="3" d="M26.667 9.333h-21.333c-1.473 0-2.667 1.194-2.667 2.667v13.333c0 1.473 1.194 2.667 2.667 2.667h21.333c1.473 0 2.667-1.194 2.667-2.667v-13.333c0-1.473-1.194-2.667-2.667-2.667z"></path>
<path fill="none" stroke="#fff" style="stroke: var(--color1, #fff)" stroke-linejoin="round" stroke-linecap="round" stroke-miterlimit="4" stroke-width="3" d="M21.333 28v-21.333c0-0.707-0.281-1.386-0.781-1.886s-1.178-0.781-1.886-0.781h-5.333c-0.707 0-1.386 0.281-1.886 0.781s-0.781 1.178-0.781 1.886v21.333"></path>
</symbol>

<symbol id="icon-info" viewBox="0 0 32 32">
<path fill="none" opacity="0.64" stroke="#616e85" style="stroke: var(--color1, #616e85)" stroke-linejoin="round" stroke-linecap="round" stroke-miterlimit="4" stroke-width="3" d="M16 29.333c7.364 0 13.333-5.969 13.333-13.333s-5.97-13.333-13.333-13.333c-7.364 0-13.333 5.97-13.333 13.333s5.97 13.333 13.333 13.333z"></path>
<path fill="none" opacity="0.64" stroke="#616e85" style="stroke: var(--color1, #616e85)" stroke-linejoin="round" stroke-linecap="round" stroke-miterlimit="4" stroke-width="3" d="M16 21.333v-5.333"></path>
<path fill="none" opacity="0.64" stroke="#616e85" style="stroke: var(--color1, #616e85)" stroke-linejoin="round" stroke-linecap="round" stroke-miterlimit="4" stroke-width="3" d="M16 10.667h0.013"></path>
</symbol>

</defs>
</svg>
